<svg width="478" height="480" viewBox="0 0 478 480" fill="none" xmlns="http://www.w3.org/2000/svg">
<path d="M239.062 0.75H238.937C107.378 0.75 0.396484 108.051 0.396484 240C0.396484 292.336 17.2155 340.848 45.8185 380.232L16.0865 469.105L107.802 439.711C145.527 464.774 190.533 479.249 239.062 479.249C370.621 479.249 477.603 371.914 477.603 239.999C477.603 108.083 370.62 0.75 239.062 0.75Z" fill="#BAD53C"/>
<path d="M377.896 338.596C372.138 354.9 349.292 368.413 331.072 372.367C318.599 375.024 302.318 377.152 247.504 354.361C177.379 325.234 132.224 253.786 128.709 249.151C125.334 244.514 100.373 211.324 100.373 176.986C100.373 142.655 117.759 125.934 124.771 118.763C130.522 112.866 140.038 110.18 149.165 110.18C152.119 110.18 154.771 110.326 157.162 110.447C164.17 110.749 167.686 111.164 172.313 122.26C178.069 136.169 192.083 170.499 193.758 174.031C195.459 177.561 197.154 182.342 194.77 186.976C192.53 191.764 190.565 193.886 187.045 197.951C183.524 202.024 180.18 205.133 176.664 209.495C173.445 213.293 169.805 217.362 173.863 224.391C177.918 231.27 191.933 254.203 212.57 272.626C239.211 296.401 260.799 303.998 268.527 307.23C274.283 309.625 281.142 309.052 285.343 304.567C290.683 298.793 297.281 289.225 303.988 279.808C308.759 273.048 314.783 272.209 321.107 274.6C327.548 276.844 361.638 293.743 368.648 297.241C375.654 300.77 380.283 302.444 381.982 305.406C383.652 308.361 383.652 322.271 377.896 338.596Z" fill="#FCFCFC"/>
</svg>
