<svg width="64" height="64" viewBox="0 0 64 64" fill="none" xmlns="http://www.w3.org/2000/svg">
<path d="M17.182 48.2947L48.2947 17.182C48.576 16.9007 48.734 16.5191 48.734 16.1213C48.734 15.7235 48.576 15.342 48.2947 15.0607C48.0134 14.7794 47.6318 14.6213 47.234 14.6213C46.8362 14.6213 46.4547 14.7794 46.1734 15.0607L15.0607 46.1734C14.7794 46.4547 14.6213 46.8362 14.6213 47.234C14.6213 47.6318 14.7794 48.0134 15.0607 48.2947C15.342 48.576 15.7235 48.734 16.1213 48.734C16.5191 48.734 16.9007 48.576 17.182 48.2947Z" fill="#BDBDBD"/>
<path d="M15.0607 17.182L46.1734 48.2947C46.4547 48.576 46.8362 48.734 47.234 48.734C47.6319 48.734 48.0134 48.576 48.2947 48.2947C48.576 48.0134 48.734 47.6318 48.734 47.234C48.734 46.8362 48.576 46.4547 48.2947 46.1734L17.182 15.0607C16.9007 14.7794 16.5192 14.6213 16.1213 14.6213C15.7235 14.6213 15.342 14.7794 15.0607 15.0607C14.7794 15.342 14.6213 15.7235 14.6213 16.1213C14.6213 16.5192 14.7794 16.9007 15.0607 17.182Z" fill="#BDBDBD"/>
</svg>
