<svg width="19.000000" height="20.419434" viewBox="0 0 19 20.4194" fill="none" xmlns="http://www.w3.org/2000/svg" xmlns:xlink="http://www.w3.org/1999/xlink">
	<desc>
			Created with Pixso.
	</desc>
	<defs/>
	<path id="Vector" d="M18.1855 13.9912L13.6055 11.7856C13.3984 11.6904 13.1719 11.6519 12.9473 11.6738C12.7227 11.6963 12.5059 11.7783 12.3184 11.9131C12.2988 11.9263 12.2812 11.9404 12.2637 11.9565L9.87109 14.1445C9.8457 14.1592 9.81836 14.167 9.78906 14.1685C9.76172 14.1694 9.73438 14.1636 9.70703 14.1509C8.16992 13.3525 6.57617 11.6504 5.83008 10.02C5.81836 9.99268 5.81055 9.96289 5.81055 9.93213C5.81055 9.90186 5.81836 9.87207 5.83008 9.84473L7.87305 7.24023C7.88672 7.2207 7.90039 7.20068 7.91406 7.17969C8.03711 6.97705 8.11133 6.74463 8.13086 6.50342C8.14844 6.26172 8.11133 6.01904 8.02148 5.79736L5.98438 0.883789C5.86914 0.59375 5.66797 0.352051 5.41406 0.194336C5.16016 0.0371094 4.86328 -0.0273438 4.57227 0.0107422C3.30664 0.189453 2.14258 0.858398 1.30078 1.8916C0.460938 2.9248 -0.00195312 4.25195 0 5.62549C0 13.7832 6.17578 20.4194 13.7656 20.4194C15.043 20.4224 16.2773 19.9248 17.2402 19.0205C18.2012 18.1162 18.8242 16.8667 18.9902 15.5054C19.0254 15.1934 18.9668 14.8774 18.8203 14.605C18.6758 14.332 18.4531 14.1172 18.1855 13.9912ZM13.7656 19.1694C6.81641 19.1694 1.16406 13.0933 1.16406 5.62549C1.16016 4.55615 1.51953 3.52246 2.17383 2.71729C2.82812 1.91211 3.73242 1.39014 4.71875 1.24951L4.74023 1.24951C4.7793 1.25049 4.81836 1.26367 4.84961 1.28809C4.88086 1.3125 4.90625 1.34668 4.91797 1.38574L6.96484 6.29395C6.97656 6.32129 6.98242 6.35107 6.98242 6.38135C6.98242 6.41113 6.97656 6.44092 6.96484 6.46826L4.91797 9.0791C4.90234 9.09766 4.88867 9.11768 4.87695 9.13818C4.74805 9.34863 4.67188 9.59082 4.6582 9.84131C4.64258 10.0918 4.6875 10.3423 4.78711 10.5688C5.64844 12.4609 7.42188 14.353 9.20117 15.2769C9.41406 15.3853 9.64844 15.4321 9.88281 15.4141C10.1152 15.396 10.3418 15.3125 10.5371 15.1729C10.5547 15.1592 10.5742 15.1445 10.5918 15.1289L12.9844 12.9414C13.0078 12.9277 13.0332 12.9194 13.0605 12.918C13.0859 12.916 13.1133 12.9204 13.1387 12.9307L17.7188 15.1362C17.7559 15.1533 17.7871 15.1826 17.8086 15.2202C17.8301 15.2578 17.8398 15.3013 17.8359 15.3447C17.707 16.4048 17.2207 17.3779 16.4727 18.082C15.7227 18.7856 14.7617 19.1724 13.7656 19.1694Z" fill="#88BD6F" fill-opacity="1.000000" fill-rule="nonzero"/>
</svg>
