<svg width="170" height="44" viewBox="0 0 170 44" fill="none" xmlns="http://www.w3.org/2000/svg">
<g clip-path="url(#clip0_213_477)">
<path fill-rule="evenodd" clip-rule="evenodd" d="M55.3605 34.0892C64.6868 34.0892 72.1979 26.4507 72.1979 17.1078C72.1979 7.70179 64.6242 0.126465 55.3605 0.126465C46.0968 0.126465 38.5231 7.70179 38.5231 17.0447C38.5231 26.4507 46.0342 34.0892 55.3605 34.0892ZM55.3605 26.3245C60.4305 26.3245 64.499 22.158 64.499 17.1078C64.499 11.9945 60.3679 7.89117 55.3605 7.89117C50.2905 7.89117 46.222 12.0576 46.222 17.1078C46.222 22.158 50.2905 26.3245 55.3605 26.3245Z" fill="#13A546"/>
<path fill-rule="evenodd" clip-rule="evenodd" d="M63.4976 33.584L71.0713 42.485C72.4483 44.1263 74.8894 44.3157 76.5168 42.9269C78.1442 41.5381 78.332 39.0761 76.955 37.4348L69.569 28.7231C67.9416 30.7432 65.8761 32.3846 63.4976 33.584Z" fill="#13A546"/>
<path d="M105.873 28.4073C105.873 29.5436 105.497 30.4905 104.809 31.1849C104.058 31.9424 103.181 32.258 102.117 32.258C100.928 32.258 99.9265 31.8162 99.1754 30.9324L90.6002 20.5794L86.9698 23.9883V28.3441C86.9698 29.4173 86.5943 30.3011 85.8432 31.0586C85.092 31.8162 84.1532 32.1949 83.1517 32.1949C82.1502 32.1949 81.2113 31.8162 80.4602 31.0586C79.7091 30.3011 79.3961 29.3542 79.3961 28.3441V5.99692C79.3961 4.92375 79.7717 4.03997 80.4602 3.28243C81.2113 2.5249 82.1502 2.14614 83.2143 2.14614C84.2783 2.14614 85.1546 2.5249 85.8432 3.28243C86.5943 4.03997 86.9698 4.98688 86.9698 5.99692V15.4661L99.0502 3.09305C99.7387 2.39865 100.552 2.08301 101.554 2.08301C102.555 2.08301 103.432 2.46177 104.058 3.15618C104.746 3.85058 105.059 4.67124 105.059 5.68129C105.059 6.69133 104.746 7.57512 104.058 8.20639L96.1709 16.0342L105.122 26.0715C105.622 26.5766 105.873 27.3972 105.873 28.4073Z" fill="#2C2B67"/>
<path d="M120.019 28.4073V9.27957H114.823C113.885 9.27957 113.071 8.96393 112.382 8.33265C111.756 7.70137 111.443 6.88071 111.443 5.9338C111.443 4.98688 111.756 4.22935 112.382 3.53495C113.071 2.84054 113.885 2.5249 114.823 2.5249H132.975C133.914 2.5249 134.665 2.84054 135.354 3.53495C136.042 4.16622 136.355 4.98688 136.355 5.9338C136.355 6.81759 136.042 7.63825 135.354 8.33265C134.728 8.96393 133.914 9.27957 132.975 9.27957H127.718V28.4704C127.718 29.5436 127.342 30.4273 126.591 31.1849C125.84 31.9424 124.901 32.3212 123.899 32.3212C122.835 32.3212 121.959 31.9424 121.208 31.1849C120.457 30.4273 120.019 29.4804 120.019 28.4073Z" fill="#2C2B67"/>
<path d="M145.682 36.9926L146.057 36.9295C148.06 36.8664 149.375 36.172 150.063 34.7832L151.127 32.258L141.112 7.25948C140.925 6.94384 140.862 6.43882 140.862 5.87067C140.862 4.7975 141.238 3.91371 141.926 3.21931C142.677 2.46177 143.554 2.08301 144.555 2.08301C146.37 2.08301 147.559 2.90367 148.06 4.48186L155.071 23.2308L162.018 4.48186C162.644 2.90367 163.834 2.08301 165.586 2.08301C166.65 2.08301 167.589 2.46177 168.278 3.21931C169.029 3.97684 169.342 4.86063 169.342 5.87067C169.342 6.31256 169.217 6.81758 169.029 7.32261L157.199 36.677C155.384 41.3484 151.878 43.7473 146.621 43.8104C146.182 43.8104 145.869 43.8104 145.807 43.7473C144.805 43.6842 143.992 43.3685 143.303 42.7372C142.615 42.106 142.364 41.2853 142.364 40.2753C142.364 39.3284 142.677 38.5708 143.303 37.9395C144.054 37.3714 144.805 37.0558 145.682 36.9926Z" fill="#2C2B67"/>
<path d="M34.0165 29.1648V36.2351C34.0165 37.182 33.7035 37.9395 33.0776 38.6339C32.4516 39.3284 31.6379 39.5809 30.699 39.5809C29.7602 39.5809 28.9465 39.2652 28.2579 38.6339C27.632 38.0027 27.319 37.182 27.319 36.2351V31.8162H7.35201V36.2351C7.35201 37.182 7.03905 37.9395 6.41312 38.6339C5.78719 39.3284 4.97349 39.5809 4.0346 39.5809C3.09571 39.5809 2.28201 39.2652 1.59349 38.6339C0.967565 38.0027 0.654602 37.182 0.654602 36.2351V30.3011C0.654602 27.3972 1.59349 25.7559 3.40868 25.2509C5.03608 22.2207 6.22534 16.9811 6.91386 9.53208L7.16423 6.69133C7.28942 5.36565 7.72756 4.35561 8.54127 3.6612C9.35497 2.90367 10.3565 2.5249 11.6083 2.5249H26.1924C27.632 2.5249 28.7587 2.90367 29.5098 3.72433C30.3235 4.48186 30.699 5.61816 30.699 7.0701V25.1877C32.9524 25.3771 34.0165 26.7028 34.0165 29.1648ZM23.1253 25.0615V9.21644H13.7365L13.5487 11.8047C13.1731 18.1174 12.1716 22.5364 10.6068 25.0615H23.1253Z" fill="#2C2B67"/>
</g>
<defs>
<clipPath id="clip0_213_477">
<rect width="169" height="44" fill="white" transform="translate(0.529419)"/>
</clipPath>
</defs>
</svg>
