<svg width="117" height="30" viewBox="0 0 117 30" fill="none" xmlns="http://www.w3.org/2000/svg">
<g clip-path="url(#clip0_12_142)">
<path d="M1.28335 1.86861H25.4396C26.0022 1.86861 26.4583 2.32566 26.4583 2.88945V7.65C26.4583 8.28411 26.1837 8.88451 25.7057 9.3L12.1973 20.625H25.4396C26.0022 20.625 26.4583 21.0737 26.4583 21.6375V27.1027C26.4583 27.6665 26.0022 28.1236 25.4396 28.1236H1.28335C0.720769 28.1236 0.264709 27.6665 0.264709 27.1027V22.35C0.264709 21.7159 0.539283 21.1155 1.01729 20.7L14.5256 9.375H1.28335C0.720769 9.375 0.264709 8.90754 0.264709 8.34375V2.88945C0.264709 2.32566 0.720769 1.86861 1.28335 1.86861ZM43.297 0.9375C46.0901 0.9375 48.5803 1.56696 50.6591 2.71725C52.738 3.86754 54.4055 5.53866 55.5533 7.62199C56.7011 9.70533 57.3292 12.2009 57.3292 15C57.3292 17.7991 56.7011 20.2947 55.5533 22.378C54.4055 24.4613 52.738 26.1325 50.6591 27.2828C48.5803 28.433 46.0901 29.0625 43.297 29.0625C40.5039 29.0625 38.0137 28.433 35.9348 27.2828C33.856 26.1325 32.1884 24.4613 31.0406 22.378C29.8928 20.2947 29.2647 17.7991 29.2647 15C29.2647 12.2009 29.8928 9.70533 31.0406 7.62199C32.1884 5.53866 33.856 3.86754 35.9348 2.71725C38.0137 1.56696 40.5039 0.9375 43.297 0.9375ZM43.297 8.4375C41.9609 8.4375 40.7879 8.72034 39.8178 9.24624C38.8476 9.77214 38.0803 10.5411 37.5556 11.5133C37.0308 12.4855 36.7486 13.661 36.7486 15C36.7486 16.339 37.0308 17.5145 37.5556 18.4867C38.0803 19.4589 38.8476 20.2279 39.8178 20.7538C40.7879 21.2797 41.9609 21.5625 43.297 21.5625C44.6331 21.5625 45.806 21.2797 46.7762 20.7538C47.7463 20.2279 48.5136 19.4589 49.0384 18.4867C49.5631 17.5145 49.8454 16.339 49.8454 15C49.8454 13.661 49.5631 12.4855 49.0384 11.5133C48.5136 10.5411 47.7463 9.77214 46.7762 9.24624C45.806 8.72034 44.6331 8.4375 43.297 8.4375ZM73.2325 0.9375C76.0256 0.9375 78.5157 1.56696 80.5946 2.71725C82.6734 3.86754 84.341 5.53866 85.4888 7.62199C86.6366 9.70533 87.2647 12.2009 87.2647 15C87.2647 17.7991 86.6366 20.2947 85.4888 22.378C84.341 24.4613 82.6734 26.1325 80.5946 27.2828C78.5157 28.433 76.0256 29.0625 73.2325 29.0625C70.4393 29.0625 67.9492 28.433 65.8703 27.2828C63.7915 26.1325 62.1239 24.4613 60.9761 22.378C59.8283 20.2947 59.2002 17.7991 59.2002 15C59.2002 12.2009 59.8283 9.70533 60.9761 7.62199C62.1239 5.53866 63.7915 3.86754 65.8703 2.71725C67.9492 1.56696 70.4393 0.9375 73.2325 0.9375ZM73.2325 8.4375C71.8964 8.4375 70.7234 8.72034 69.7533 9.24624C68.7831 9.77214 68.0158 10.5411 67.4911 11.5133C66.9663 12.4855 66.6841 13.661 66.6841 15C66.6841 16.339 66.9663 17.5145 67.4911 18.4867C68.0158 19.4589 68.7831 20.2279 69.7533 20.7538C70.7234 21.2797 71.8964 21.5625 73.2325 21.5625C74.5685 21.5625 75.7415 21.2797 76.7116 20.7538C77.6818 20.2279 78.4491 19.4589 78.9738 18.4867C79.4986 17.5145 79.7808 16.339 79.7808 15C79.7808 13.661 79.4986 12.4855 78.9738 11.5133C78.4491 10.5411 77.6818 9.77214 76.7116 9.24624C75.7415 8.72034 74.5685 8.4375 73.2325 8.4375ZM116.268 2.8927V27.1023C116.268 27.6662 115.812 28.1232 115.249 28.1232H110.502C109.869 28.1232 109.27 27.8481 108.856 27.3691L97.555 13.8333V27.1023C97.555 27.6662 97.0886 28.1232 96.526 28.1232H91.0867C90.5241 28.1232 90.068 27.6662 90.068 27.1023V2.8927C90.068 2.32887 90.5241 1.87181 91.0867 1.87181H95.8337C96.4666 1.87181 97.0656 2.14704 97.4802 2.62619L108.781 16.1667V2.8927C108.781 2.32887 109.229 1.87181 109.791 1.87181H115.249C115.812 1.87181 116.268 2.32887 116.268 2.8927Z" fill="url(#paint0_linear_12_142)"/>
</g>
<defs>
<linearGradient id="paint0_linear_12_142" x1="8972.32" y1="1407.19" x2="2530.44" y2="1407.19" gradientUnits="userSpaceOnUse">
<stop stop-color="#6339F5"/>
<stop offset="1" stop-color="#3D3F55"/>
</linearGradient>
<clipPath id="clip0_12_142">
<rect width="116" height="30" fill="white" transform="translate(0.264709)"/>
</clipPath>
</defs>
</svg>
