<svg width="28.063477" height="28.063812" viewBox="0 0 28.0635 28.0638" fill="none" xmlns="http://www.w3.org/2000/svg" xmlns:xlink="http://www.w3.org/1999/xlink">
	<desc>
			Created with Pixso.
	</desc>
	<defs>
		<clipPath id="clip1_1947">
			<rect id="ph:star-light" width="28.063818" height="28.063818" fill="white" fill-opacity="0"/>
		</clipPath>
		<clipPath id="clip1_1945">
			<rect id="ph:star-light" width="28.063818" height="28.063818" fill="white" fill-opacity="0"/>
		</clipPath>
		<linearGradient id="paint_linear_1_1946_0" x1="14.032451" y1="1.980469" x2="14.032451" y2="25.213900" gradientUnits="userSpaceOnUse">
			<stop stop-color="#13A546"/>
			<stop offset="1.000000" stop-color="#88BD6F"/>
		</linearGradient>
		<linearGradient id="paint_linear_1_1948_0" x1="14.032451" y1="1.980469" x2="14.032451" y2="25.213900" gradientUnits="userSpaceOnUse">
			<stop stop-color="#13A546"/>
			<stop offset="1.000000" stop-color="#88BD6F"/>
		</linearGradient>
	</defs>
	<rect id="ph:star-light" width="28.063818" height="28.063818" fill="#FFFFFF" fill-opacity="0"/>
	<g clip-path="url(#clip1_1945)">
		<path id="Vector" d="M26.0146 10.7321C25.9238 10.4446 25.749 10.1907 25.5127 10.0032C25.2773 9.81564 24.9902 9.703 24.6895 9.67972L18.1719 9.11627C18.1318 9.1124 18.0947 9.0979 18.0625 9.07434C18.0312 9.05081 18.0059 9.01907 17.9912 8.98251L15.4443 2.91373C15.3262 2.63687 15.1299 2.40079 14.8789 2.23486C14.6279 2.06894 14.333 1.98047 14.0322 1.98047C13.7314 1.98047 13.4375 2.06894 13.1855 2.23486C12.9346 2.40079 12.7383 2.63687 12.6201 2.91373L10.0732 8.98251C10.0586 9.01907 10.0332 9.05081 10.002 9.07434C9.96973 9.0979 9.93262 9.1124 9.89258 9.11627L3.375 9.67972C3.07422 9.703 2.78711 9.81564 2.55176 10.0032C2.31543 10.1907 2.14062 10.4446 2.05078 10.7321C1.9541 11.0201 1.94629 11.3299 2.02637 11.6226C2.10645 11.9153 2.27148 12.1776 2.50098 12.3765L7.44629 16.6902C7.47656 16.7171 7.49902 16.7516 7.51074 16.7902C7.52344 16.8288 7.52539 16.87 7.5166 16.9095L6.0293 23.3236C5.95996 23.6189 5.98047 23.9281 6.08691 24.2122C6.19238 24.4963 6.38086 24.7425 6.62695 24.9197C6.86914 25.0985 7.16016 25.2006 7.46094 25.2127C7.76172 25.2248 8.05957 25.1464 8.31543 24.9877L13.918 21.5893C13.9512 21.5689 13.9893 21.5581 14.0283 21.5581C14.0664 21.5581 14.1045 21.5689 14.1377 21.5893L19.7402 24.9877C19.999 25.146 20.2988 25.2242 20.6016 25.2123C20.9043 25.2005 21.1973 25.0992 21.4424 24.9211C21.6885 24.7431 21.875 24.4964 21.9805 24.212C22.0859 23.9277 22.1055 23.6186 22.0352 23.3236L20.5527 16.9073C20.5439 16.8678 20.5449 16.8266 20.5576 16.788C20.5703 16.7495 20.5928 16.7149 20.623 16.688L25.5684 12.3743C25.7959 12.1751 25.96 11.9129 26.0391 11.6207C26.1191 11.3285 26.1104 11.0193 26.0146 10.7321ZM24.6982 11.3811L19.7539 15.6948C19.543 15.8781 19.3857 16.1155 19.3008 16.3813C19.2148 16.6472 19.2031 16.9313 19.2666 17.2032L20.749 23.6196C20.7598 23.6627 20.7578 23.7081 20.7422 23.7498C20.7266 23.7915 20.6992 23.8275 20.6621 23.8531C20.6289 23.8795 20.5889 23.8946 20.5469 23.8964C20.5049 23.8982 20.4629 23.8864 20.4277 23.8629L14.8252 20.4646C14.5859 20.3194 14.3115 20.2426 14.0322 20.2426C13.7529 20.2426 13.4785 20.3194 13.2393 20.4646L7.63672 23.8629C7.60156 23.8864 7.55957 23.8982 7.51758 23.8964C7.47559 23.8946 7.43555 23.8795 7.40234 23.8531C7.36621 23.8275 7.33789 23.7915 7.32227 23.7498C7.30664 23.7081 7.30469 23.6627 7.31543 23.6196L8.79785 17.2032C8.86133 16.9313 8.84961 16.6472 8.76367 16.3813C8.67871 16.1155 8.52148 15.8781 8.31055 15.6948L3.36621 11.3811C3.33203 11.3523 3.30762 11.314 3.2959 11.2711C3.28418 11.2282 3.28613 11.1829 3.30078 11.141C3.3125 11.0993 3.33594 11.0622 3.37012 11.0351C3.40332 11.0079 3.44434 10.992 3.4873 10.9897L10.0068 10.4263C10.2861 10.4025 10.5527 10.3028 10.7793 10.1379C11.0059 9.97311 11.1836 9.74945 11.292 9.49118L13.8379 3.42236C13.8555 3.3847 13.8838 3.35284 13.9189 3.33054C13.9541 3.30823 13.9951 3.29639 14.0371 3.29639C14.0781 3.29639 14.1191 3.30823 14.1543 3.33054C14.1895 3.35284 14.2178 3.3847 14.2354 3.42236L16.7725 9.49118C16.8809 9.74884 17.0576 9.97208 17.2832 10.1369C17.5088 10.3017 17.7754 10.4017 18.0537 10.4263L24.5723 10.9897C24.6152 10.992 24.6572 11.0079 24.6904 11.0351C24.7236 11.0622 24.748 11.0993 24.7588 11.141C24.7744 11.1825 24.7764 11.2275 24.7656 11.2704C24.7549 11.3132 24.7314 11.3518 24.6982 11.3811Z" fill="url(#paint_linear_1_1946_0)" fill-opacity="1.000000" fill-rule="nonzero"/>
		<rect id="ph:star-light" width="28.063818" height="28.063818" fill="#FFFFFF" fill-opacity="0"/>
		<g clip-path="url(#clip1_1947)">
			<path id="Vector" d="M25.5127 10.0032C25.749 10.1907 25.9238 10.4446 26.0146 10.7321C26.1104 11.0193 26.1191 11.3285 26.0391 11.6207C25.96 11.9129 25.7959 12.1751 25.5684 12.3743L20.623 16.688C20.5928 16.7149 20.5703 16.7495 20.5576 16.788C20.5449 16.8266 20.5439 16.8678 20.5527 16.9073L22.0352 23.3236C22.1055 23.6186 22.0859 23.9277 21.9805 24.212C21.875 24.4964 21.6885 24.7431 21.4424 24.9211C21.1973 25.0992 20.9043 25.2005 20.6016 25.2123C20.2988 25.2242 19.999 25.146 19.7402 24.9877L14.1377 21.5893C14.1045 21.5689 14.0664 21.5581 14.0283 21.5581C13.9893 21.5581 13.9512 21.5689 13.918 21.5893L8.31543 24.9877C8.05957 25.1464 7.76172 25.2248 7.46094 25.2127C7.16016 25.2006 6.86914 25.0985 6.62695 24.9197C6.38086 24.7425 6.19238 24.4963 6.08691 24.2122C5.98047 23.9281 5.95996 23.6189 6.0293 23.3236L7.5166 16.9095C7.52539 16.87 7.52344 16.8288 7.51074 16.7902C7.49902 16.7516 7.47656 16.7171 7.44629 16.6902L2.50098 12.3765C2.27148 12.1776 2.10645 11.9153 2.02637 11.6226C1.94629 11.3299 1.9541 11.0201 2.05078 10.7321C2.14062 10.4446 2.31543 10.1907 2.55176 10.0032C2.78711 9.81564 3.07422 9.703 3.375 9.67972L9.89258 9.11627C9.93262 9.1124 9.96973 9.0979 10.002 9.07434C10.0332 9.05081 10.0586 9.01907 10.0732 8.98251L12.6201 2.91373C12.7383 2.63687 12.9346 2.40079 13.1855 2.23486C13.4375 2.06894 13.7314 1.98047 14.0322 1.98047C14.333 1.98047 14.6279 2.06894 14.8789 2.23486C15.1299 2.40079 15.3262 2.63687 15.4443 2.91373L17.9912 8.98251C18.0059 9.01907 18.0312 9.05081 18.0625 9.07434C18.0947 9.0979 18.1318 9.1124 18.1719 9.11627L24.6895 9.67972C24.9902 9.703 25.2773 9.81564 25.5127 10.0032Z" fill="url(#paint_linear_1_1948_0)" fill-opacity="1.000000" fill-rule="evenodd"/>
		</g>
	</g>
</svg>
