<svg width="24" height="24" viewBox="0 0 24 24" fill="none" xmlns="http://www.w3.org/2000/svg">
<path d="M12 2.4375C13.8913 2.4375 15.7401 2.99833 17.3126 4.04907C18.8852 5.09981 20.1108 6.59327 20.8346 8.34059C21.5584 10.0879 21.7477 12.0106 21.3788 13.8656C21.0098 15.7205 20.099 17.4244 18.7617 18.7617C17.4244 20.099 15.7205 21.0098 13.8655 21.3788C12.0106 21.7477 10.0879 21.5584 8.34059 20.8346C6.59327 20.1108 5.09981 18.8852 4.04907 17.3126C2.99833 15.7401 2.4375 13.8913 2.4375 12C2.44047 9.46478 3.4489 7.03425 5.24158 5.24158C7.03425 3.44891 9.46478 2.44048 12 2.4375ZM12 20.4375C13.6688 20.4375 15.3001 19.9426 16.6876 19.0155C18.0752 18.0884 19.1566 16.7706 19.7952 15.2289C20.4338 13.6871 20.6009 11.9906 20.2754 10.3539C19.9498 8.71721 19.1462 7.21379 17.9662 6.03379C16.7862 4.85378 15.2828 4.05019 13.6461 3.72462C12.0094 3.39906 10.3129 3.56615 8.7711 4.20477C7.22935 4.84338 5.9116 5.92484 4.98447 7.31238C4.05735 8.69992 3.5625 10.3312 3.5625 12C3.56498 14.237 4.45472 16.3817 6.03652 17.9635C7.61832 19.5453 9.76299 20.435 12 20.4375ZM10.1025 8.6475L13.4541 12L10.1025 15.3525C10.0472 15.404 10.0029 15.4661 9.97216 15.5351C9.94142 15.6041 9.92488 15.6786 9.92355 15.7541C9.92222 15.8296 9.93611 15.9047 9.9644 15.9747C9.99269 16.0447 10.0348 16.1084 10.0882 16.1618C10.1416 16.2152 10.2053 16.2573 10.2753 16.2856C10.3453 16.3139 10.4204 16.3278 10.4959 16.3264C10.5714 16.3251 10.6459 16.3086 10.7149 16.2778C10.7839 16.2471 10.846 16.2028 10.8975 16.1475L14.6475 12.3975C14.7528 12.292 14.812 12.1491 14.812 12C14.812 11.8509 14.7528 11.708 14.6475 11.6025L10.8975 7.8525C10.7909 7.75314 10.6498 7.69905 10.5041 7.70162C10.3584 7.70419 10.2193 7.76322 10.1163 7.86628C10.0132 7.96934 9.95419 8.10838 9.95161 8.25411C9.94904 8.39983 10.0031 8.54087 10.1025 8.6475Z" fill="#21763A"/>
</svg>
