<svg width="58" height="64" viewBox="0 0 58 64" fill="none" xmlns="http://www.w3.org/2000/svg">
<g filter="url(#filter0_i_272_1488)">
<rect width="100" height="64" rx="32" transform="matrix(-1 0 0 1 100 0)" fill="url(#paint0_linear_272_1488)"/>
</g>
<path d="M37.7071 31.2929C38.0976 31.6834 38.0976 32.3166 37.7071 32.7071L31.3431 39.0711C30.9526 39.4616 30.3195 39.4616 29.9289 39.0711C29.5384 38.6805 29.5384 38.0474 29.9289 37.6569L35.5858 32L29.9289 26.3431C29.5384 25.9526 29.5384 25.3195 29.9289 24.9289C30.3195 24.5384 30.9526 24.5384 31.3431 24.9289L37.7071 31.2929ZM21 31L37 31V33H21V31Z" fill="#F2F2F2"/>
<defs>
<filter id="filter0_i_272_1488" x="0" y="0" width="105" height="68" filterUnits="userSpaceOnUse" color-interpolation-filters="sRGB">
<feFlood flood-opacity="0" result="BackgroundImageFix"/>
<feBlend mode="normal" in="SourceGraphic" in2="BackgroundImageFix" result="shape"/>
<feColorMatrix in="SourceAlpha" type="matrix" values="0 0 0 0 0 0 0 0 0 0 0 0 0 0 0 0 0 0 127 0" result="hardAlpha"/>
<feOffset dx="5" dy="4"/>
<feGaussianBlur stdDeviation="5"/>
<feComposite in2="hardAlpha" operator="arithmetic" k2="-1" k3="1"/>
<feColorMatrix type="matrix" values="0 0 0 0 0 0 0 0 0 0 0 0 0 0 0 0 0 0 0.25 0"/>
<feBlend mode="normal" in2="shape" result="effect1_innerShadow_272_1488"/>
</filter>
<linearGradient id="paint0_linear_272_1488" x1="50" y1="0" x2="50" y2="64" gradientUnits="userSpaceOnUse">
<stop stop-color="#13A546"/>
<stop offset="1" stop-color="#88BD6F"/>
</linearGradient>
</defs>
</svg>
