<svg width="24" height="24" viewBox="0 0 24 24" fill="none" xmlns="http://www.w3.org/2000/svg">
<path d="M12 21.5625C10.1087 21.5625 8.25991 21.0017 6.68736 19.9509C5.11482 18.9002 3.88917 17.4067 3.16541 15.6594C2.44164 13.9121 2.25227 11.9894 2.62125 10.1344C2.99022 8.27951 3.90096 6.57563 5.2383 5.23829C6.57564 3.90095 8.27951 2.99021 10.1345 2.62124C11.9894 2.25227 13.9121 2.44164 15.6594 3.1654C17.4067 3.88916 18.9002 5.11481 19.9509 6.68736C21.0017 8.2599 21.5625 10.1087 21.5625 12C21.5595 14.5352 20.5511 16.9657 18.7584 18.7584C16.9658 20.5511 14.5352 21.5595 12 21.5625ZM12 3.5625C10.3312 3.5625 8.69992 4.05735 7.31238 4.98448C5.92484 5.9116 4.84339 7.22936 4.20477 8.77111C3.56616 10.3129 3.39907 12.0094 3.72463 13.6461C4.05019 15.2828 4.85379 16.7862 6.03379 17.9662C7.2138 19.1462 8.71722 19.9498 10.3539 20.2754C11.9906 20.6009 13.6871 20.4338 15.2289 19.7952C16.7706 19.1566 18.0884 18.0752 19.0155 16.6876C19.9427 15.3001 20.4375 13.6688 20.4375 12C20.435 9.763 19.5453 7.61833 17.9635 6.03653C16.3817 4.45473 14.237 3.56498 12 3.5625ZM13.8975 15.3525L10.5459 12L13.8975 8.6475C13.9528 8.596 13.9971 8.5339 14.0278 8.4649C14.0586 8.3959 14.0751 8.32142 14.0764 8.24589C14.0778 8.17036 14.0639 8.09534 14.0356 8.0253C14.0073 7.95526 13.9652 7.89164 13.9118 7.83822C13.8584 7.78481 13.7947 7.7427 13.7247 7.71441C13.6547 7.68612 13.5796 7.67222 13.5041 7.67356C13.4286 7.67489 13.3541 7.69142 13.2851 7.72216C13.2161 7.75291 13.154 7.79723 13.1025 7.8525L9.3525 11.6025C9.24717 11.708 9.188 11.8509 9.188 12C9.188 12.1491 9.24717 12.292 9.3525 12.3975L13.1025 16.1475C13.2091 16.2469 13.3502 16.301 13.4959 16.2984C13.6416 16.2958 13.7807 16.2368 13.8837 16.1337C13.9868 16.0307 14.0458 15.8916 14.0484 15.7459C14.051 15.6002 13.9969 15.4591 13.8975 15.3525Z" fill="#21763A"/>
</svg>
