<svg width="36" height="36" viewBox="0 0 36 36" fill="none" xmlns="http://www.w3.org/2000/svg">
<g clip-path="url(#clip0_205_50)">
<path d="M0.762251 17.7846C0.761414 20.8093 1.55174 23.7627 3.05453 26.3658L0.61853 35.2601L9.72067 32.8735C12.2382 34.244 15.0589 34.9621 17.9253 34.9623H17.9329C27.3954 34.9623 35.0982 27.2623 35.1022 17.7981C35.104 13.212 33.3196 8.89954 30.0777 5.65508C26.8363 2.41089 22.5254 0.623309 17.9322 0.621216C8.46849 0.621216 0.766298 8.32075 0.762391 17.7846" fill="url(#paint0_linear_205_50)"/>
<path d="M0.149302 17.779C0.148326 20.9125 0.966977 23.9715 2.52335 26.6679L0 35.881L9.42851 33.4088C12.0264 34.8253 14.9513 35.572 17.9276 35.5732H17.9353C27.7373 35.5732 35.7167 27.5962 35.7209 17.7932C35.7226 13.0423 33.874 8.57484 30.5163 5.21414C27.1581 1.85386 22.693 0.00195349 17.9353 0C8.13153 0 0.153209 7.97581 0.149302 17.779ZM5.76433 26.2035L5.41228 25.6447C3.93237 23.2916 3.15126 20.5723 3.15237 17.7801C3.15544 9.63195 9.7867 3.00279 17.9408 3.00279C21.8897 3.00447 25.6007 4.54381 28.392 7.33674C31.1831 10.13 32.719 13.843 32.718 17.7921C32.7144 25.9402 26.083 32.5702 17.9353 32.5702H17.9294C15.2764 32.5688 12.6745 31.8564 10.4054 30.51L9.8654 30.1898L4.27033 31.6567L5.76433 26.2035Z" fill="url(#paint1_linear_205_50)"/>
<path d="M13.4899 10.3463C13.157 9.6063 12.8066 9.59137 12.49 9.57839C12.2308 9.56723 11.9344 9.56807 11.6383 9.56807C11.3419 9.56807 10.8604 9.67956 10.4534 10.124C10.0459 10.5688 8.89783 11.6438 8.89783 13.8302C8.89783 16.0167 10.4903 18.1297 10.7123 18.4264C10.9346 18.7227 13.7867 23.353 18.3037 25.1343C22.0578 26.6146 22.8217 26.3202 23.6365 26.246C24.4514 26.172 26.2659 25.1713 26.6361 24.1336C27.0065 23.096 27.0065 22.2066 26.8955 22.0207C26.7844 21.8356 26.488 21.7243 26.0436 21.5022C25.599 21.2799 23.4142 20.2048 23.0069 20.0565C22.5995 19.9083 22.3032 19.8343 22.0069 20.2793C21.7105 20.7236 20.8595 21.7243 20.6001 22.0207C20.3409 22.3178 20.0815 22.3548 19.6373 22.1325C19.1926 21.9095 17.7614 21.4408 16.0634 19.927C14.7422 18.749 13.8503 17.2944 13.5911 16.8494C13.3318 16.4051 13.5633 16.1643 13.7862 15.9429C13.9858 15.7437 14.2307 15.4239 14.4531 15.1645C14.6747 14.905 14.7487 14.7198 14.8969 14.4235C15.0452 14.1268 14.9709 13.8673 14.86 13.645C14.7487 13.4227 13.8851 11.2249 13.4899 10.3463Z" fill="white"/>
</g>
<defs>
<linearGradient id="paint0_linear_205_50" x1="1724.8" y1="3464.51" x2="1724.8" y2="0.621216" gradientUnits="userSpaceOnUse">
<stop stop-color="#1FAF38"/>
<stop offset="1" stop-color="#60D669"/>
</linearGradient>
<linearGradient id="paint1_linear_205_50" x1="1786.05" y1="3588.1" x2="1786.05" y2="0" gradientUnits="userSpaceOnUse">
<stop stop-color="#F9F9F9"/>
<stop offset="1" stop-color="white"/>
</linearGradient>
<clipPath id="clip0_205_50">
<rect width="35.7209" height="36" fill="white"/>
</clipPath>
</defs>
</svg>
